<svg width="100" height="96" viewBox="0 0 100 96" fill="none" xmlns="http://www.w3.org/2000/svg">
<path d="M58.1998 88.0001C58.1998 92.3001 54.8998 95.8001 50.8998 95.8001H10.3998C5.0998 95.8001 0.799805 91.2001 0.799805 85.5001C0.799805 79.8001 5.0998 75.2001 10.3998 75.2001C10.8998 75.2001 11.3998 75.3001 11.7998 75.3001C11.7998 75.1001 11.7998 74.8001 11.7998 74.6001C11.7998 67.9001 16.8998 62.5001 23.0998 62.5001C29.1998 62.5001 34.1998 67.7001 34.3998 74.3001C35.9998 72.2001 38.3998 70.9001 41.0998 70.9001C45.8998 70.9001 49.7998 75.1001 49.7998 80.3001V80.4001C50.1998 80.3001 50.5998 80.3001 50.9998 80.3001C54.9998 80.2001 58.1998 83.6001 58.1998 88.0001ZM82.0998 78.3001L72.2998 86.6001L79.7998 95.4001C80.2998 96.0001 81.1998 96.0001 81.6998 95.5001L89.3998 88.9001C89.9998 88.4001 89.9998 87.6001 89.5998 87.0001L82.0998 78.3001ZM76.9998 72.4001L67.1998 80.8001L70.7998 85.1001L80.5998 76.8001L76.9998 72.4001ZM68.5998 62.5001C68.4998 62.4001 68.2998 62.2001 68.1998 62.2001C68.0998 62.2001 68.0998 62.2001 67.9998 62.1001C67.8998 62.1001 67.7998 62.0001 67.6998 62.0001C67.5998 62.0001 67.4998 62.0001 67.3998 62.0001C67.2998 62.0001 67.2998 62.0001 67.1998 62.0001C67.0998 62.0001 66.9998 62.1001 66.9998 62.1001C66.8998 62.1001 66.8998 62.2001 66.7998 62.2001L58.9998 68.9001C58.3998 69.4001 58.3998 70.2001 58.8998 70.8001L65.8998 79.0001L75.6998 70.6001L68.5998 62.5001ZM49.2998 53.6001C49.1998 53.7001 49.0998 53.7001 49.0998 53.8001L59.3998 65.8001L63.5998 62.2001L53.2998 50.2001C53.1998 50.3001 53.0998 50.3001 53.0998 50.4001C52.4998 51.0001 51.8998 51.5001 51.2998 52.1001C50.5998 52.6001 49.8998 53.1001 49.2998 53.6001ZM91.9998 43.7001C92.0998 43.2001 92.4998 42.8001 92.9998 42.8001H99.0998V33.7001H92.9998C92.4998 33.7001 92.0998 33.3001 91.9998 32.8001C91.3998 29.9001 90.1998 27.2001 88.5998 24.7001C88.2998 24.3001 88.3998 23.7001 88.7998 23.3001L93.0998 19.0001L86.6998 12.6001L82.3998 17.0001C81.9998 17.4001 81.4998 17.4001 81.0998 17.1001C78.5998 15.5001 75.7998 14.4001 72.9998 13.7001C72.4998 13.6001 72.0998 13.1001 72.0998 12.6001V6.6001H62.9998V12.7001C62.9998 13.2001 62.5998 13.7001 62.0998 13.8001C60.8998 14.0001 59.7998 14.4001 58.6998 14.8001C58.8998 15.1001 58.9998 15.4001 59.0998 15.7001C59.0998 15.8001 59.1998 15.8001 59.1998 15.9001C60.1998 18.0001 60.8998 20.3001 61.3998 22.6001C63.2998 21.8001 65.3998 21.5001 67.4998 21.5001C76.7998 21.5001 84.3998 29.1001 84.3998 38.4001C84.3998 47.7001 76.7998 55.3001 67.4998 55.3001C63.8998 55.3001 60.3998 54.2001 57.5998 52.1001L65.0998 60.9001L65.1998 60.8001C65.3998 60.7001 65.4998 60.6001 65.6998 60.5001L65.7998 60.4001H65.8998C66.4998 60.1001 67.0998 59.9001 67.7998 60.0001C68.4998 60.1001 69.0998 60.3001 69.5998 60.7001C69.5998 60.7001 69.6998 60.7001 69.6998 60.8001C69.7998 60.9001 69.8998 61.0001 69.9998 61.1001C70.0998 61.2001 70.1998 61.2001 70.1998 61.3001L72.1998 63.6001C72.2998 63.3001 72.5998 63.1001 72.8998 63.0001C75.7998 62.4001 78.4998 61.2001 80.9998 59.6001C81.1998 59.5001 81.3998 59.4001 81.5998 59.4001C81.8998 59.4001 82.1998 59.5001 82.3998 59.7001L86.6998 64.0001L93.0998 57.6001L88.7998 53.3001C88.3998 52.9001 88.3998 52.4001 88.5998 51.9001C90.2998 49.3001 91.3998 46.6001 91.9998 43.7001ZM9.4998 47.3001C4.4998 41.5001 2.0998 34.1001 2.6998 26.5001C3.2998 18.9001 6.7998 11.9001 12.5998 7.0001C17.7998 2.5001 24.2998 0.100098 31.1998 0.100098C31.9998 0.100098 32.6998 0.100098 33.4998 0.200098C41.0998 0.800098 47.9998 4.3001 52.9998 10.1001C54.6998 12.1001 56.0998 14.3001 57.1998 16.6001C57.1998 16.7001 57.2998 16.7001 57.2998 16.8001C61.9998 27.0001 60.3998 39.3001 52.4998 47.9001C51.6998 48.8001 50.7998 49.7001 49.8998 50.5001C49.3998 50.9001 48.8998 51.3001 48.3998 51.7001C47.8998 52.1001 47.3998 52.4001 46.8998 52.7001C34.8998 60.5001 18.7998 58.2001 9.4998 47.3001ZM12.3998 44.8001C17.1998 50.4001 24.1998 53.4001 31.1998 53.4001C35.8998 53.4001 40.4998 52.1001 44.6998 49.4001C45.5998 48.8001 46.3998 48.2001 47.2998 47.5001C48.0998 46.8001 48.8998 46.1001 49.5998 45.3001C57.8998 36.1001 58.0998 22.1001 49.9998 12.7001C41.0998 2.3001 25.4998 1.1001 15.1998 9.9001C4.7998 18.8001 3.5998 34.4001 12.3998 44.8001ZM14.0998 43.4001C5.9998 34.0001 7.0998 19.7001 16.5998 11.6001C20.7998 8.0001 25.9998 6.2001 31.1998 6.2001C37.5998 6.2001 43.8998 8.9001 48.2998 14.1001C55.5998 22.7001 55.4998 35.5001 47.8998 43.8001C47.2998 44.5001 46.5998 45.2001 45.7998 45.8001C45.0998 46.4001 44.2998 47.0001 43.4998 47.6001C34.0998 53.7001 21.3998 51.9001 14.0998 43.4001ZM46.8998 28.7001L38.6998 34.7001C38.1998 35.1001 38.0998 35.7001 38.4998 36.2001C38.6998 36.5001 38.9998 36.6001 39.3998 36.6001C39.5998 36.6001 39.7998 36.5001 39.9998 36.4001L49.3998 29.6001C49.6998 29.4001 49.7998 29.1001 49.7998 28.7001C49.7998 28.3001 49.5998 28.0001 49.3998 27.8001L39.9998 21.0001C39.4998 20.7001 38.7998 20.8001 38.4998 21.2001C38.1998 21.7001 38.2998 22.4001 38.6998 22.7001L46.8998 28.7001ZM27.1998 36.5001C27.3998 36.6001 27.4998 36.6001 27.6998 36.6001C28.0998 36.6001 28.4998 36.4001 28.6998 36.0001L35.6998 22.3001C35.9998 21.8001 35.7998 21.1001 35.1998 20.8001C34.6998 20.5001 33.9998 20.7001 33.6998 21.3001L26.6998 35.0001C26.4998 35.6001 26.6998 36.2001 27.1998 36.5001ZM12.9998 29.6001L22.3998 36.4001C22.5998 36.5001 22.7998 36.6001 22.9998 36.6001C23.2998 36.6001 23.6998 36.4001 23.8998 36.2001C24.2998 35.7001 24.0998 35.0001 23.6998 34.7001L15.4998 28.7001L23.6998 22.7001C24.1998 22.4001 24.2998 21.7001 23.8998 21.2001C23.5998 20.7001 22.8998 20.6001 22.3998 21.0001L12.9998 27.8001C12.6998 28.0001 12.5998 28.3001 12.5998 28.7001C12.5998 29.1001 12.6998 29.4001 12.9998 29.6001Z" fill="white"/>
</svg>
