<svg enable-background="new 0 0 32 32" viewBox="0 0 32 32" xmlns="http://www.w3.org/2000/svg"><path d="m18 31.36h-4c-.128 0-.248-.069-.312-.181l-2-3.464c-.064-.111-.064-.248 0-.359l2-3.464c.064-.111.183-.181.312-.181h3.792l2.896-5.016c.1-.174.32-.231.491-.132.173.1.231.319.132.491l-2.896 5.017 1.896 3.284c.064.111.064.248 0 .359l-2 3.464c-.064.113-.182.182-.311.182zm-3.792-.72h3.584l1.792-3.104-1.792-3.104h-3.584l-1.792 3.104zm13.792-5.047h-4c-.129 0-.247-.069-.312-.181l-2-3.465c-.064-.111-.064-.248 0-.359l1.896-3.284-2.896-5.016c-.1-.172-.041-.393.132-.492.171-.1.392-.041.491.131l2.896 5.016h3.793c.129 0 .247.069.312.181l2 3.464c.064.111.064.248 0 .359l-2 3.465c-.065.111-.183.181-.312.181zm-3.792-.721h3.584l1.792-3.104-1.792-3.104h-3.584l-1.792 3.104zm-16.208.721h-4c-.128 0-.248-.069-.312-.181l-2-3.465c-.064-.111-.064-.248 0-.359l2-3.464c.064-.111.184-.181.312-.181h4c.128 0 .248.069.312.181l1.896 3.283h5.792c.199 0 .36.161.36.36s-.161.36-.36.36h-5.792l-1.896 3.284c-.064.112-.184.182-.312.182zm-3.792-.721h3.584l1.792-3.104-1.792-3.104h-3.584l-1.792 3.104zm6.792-5.619c-.125 0-.246-.064-.312-.181l-2.896-5.016h-3.792c-.128 0-.248-.068-.312-.18l-2-3.464c-.064-.111-.064-.249 0-.36l2-3.464c.064-.111.184-.18.312-.18h4c.128 0 .248.068.312.18l2 3.464c.064.111.064.249 0 .36l-1.896 3.284 2.896 5.017c.099.172.04.392-.132.491-.056.033-.118.049-.18.049zm-6.792-5.917h3.584l1.792-3.104-1.792-3.104h-3.584l-1.792 3.104zm23.792.72h-4c-.129 0-.247-.068-.312-.18l-1.896-3.285h-5.792c-.199 0-.36-.161-.36-.36s.161-.36.36-.36h5.792l1.896-3.284c.064-.111.183-.18.312-.18h4c.129 0 .247.068.312.18l2 3.464c.064.111.064.249 0 .36l-2 3.464c-.065.113-.183.181-.312.181zm-3.792-.72h3.584l1.792-3.104-1.792-3.104h-3.584l-1.792 3.104zm-13.208.148c-.061 0-.123-.015-.18-.048-.172-.1-.231-.32-.132-.492l2.896-5.016-1.896-3.284c-.064-.112-.064-.249 0-.36l2-3.464c.064-.112.184-.18.312-.18h4c.129 0 .247.068.312.18l2 3.464c.064.111.064.249 0 .36l-2 3.464c-.065.112-.183.18-.312.18h-3.792l-2.896 5.017c-.067.115-.188.179-.312.179zm3.208-5.916h3.584l1.792-3.104-1.792-3.104h-3.584l-1.792 3.104z"/><path d="m0 0h32v32h-32z" fill="none"/></svg>