<svg width="25" height="17" viewBox="0 0 25 17" fill="none" xmlns="http://www.w3.org/2000/svg">
<path d="M20.9014 0.277575C21.7527 0.475614 22.5262 0.921363 23.1244 1.55857C23.4539 1.90344 23.7401 2.28728 23.9764 2.70157C23.9874 2.74657 22.4424 3.78458 21.5054 4.36358C21.4714 4.38658 21.3364 4.23957 21.1834 4.01357C21.0123 3.71935 20.7693 3.4733 20.4773 3.29843C20.1852 3.12355 19.8536 3.02555 19.5134 3.01357C18.4364 2.93957 17.7424 3.50357 17.7474 4.44657C17.7381 4.67825 17.791 4.90819 17.9004 5.11258C18.1374 5.60258 18.5774 5.89658 19.9594 6.49558C22.5034 7.59058 23.5954 8.31258 24.2694 9.33858C24.6504 9.98684 24.885 10.7106 24.9569 11.459C25.0288 12.2075 24.9361 12.9627 24.6854 13.6716C24.3409 14.449 23.7946 15.1201 23.1032 15.6151C22.4117 16.1101 21.6004 16.411 20.7534 16.4866C19.8531 16.5898 18.9434 16.5804 18.0454 16.4586C16.6699 16.2326 15.4028 15.5724 14.4294 14.5746C14.0616 14.1604 13.7503 13.6994 13.5034 13.2036C13.6072 13.1264 13.7165 13.0568 13.8304 12.9956C13.9884 12.9056 14.5864 12.5616 15.1504 12.2346L16.1744 11.6346L16.3884 11.9466C16.7489 12.462 17.2077 12.9011 17.7384 13.2386C18.2745 13.5326 18.8816 13.6719 19.4922 13.641C20.1028 13.6101 20.6928 13.4102 21.1964 13.0636C21.4562 12.8104 21.6186 12.4738 21.6552 12.1129C21.6917 11.752 21.6001 11.3897 21.3964 11.0896C21.1204 10.6946 20.5564 10.3626 18.9534 9.66757C17.6965 9.24374 16.5516 8.54123 15.6044 7.61258C15.1534 7.09854 14.8202 6.49202 14.6284 5.83557C14.4866 5.08776 14.4657 4.32203 14.5664 3.56757C14.7546 2.69942 15.2051 1.91009 15.857 1.30657C16.5088 0.703044 17.3304 0.314496 18.2104 0.193575C19.1066 0.086491 20.0137 0.114807 20.9014 0.277575ZM12.5584 1.76057L12.5694 3.21458H7.93943V16.3626H4.67443V3.21757H0.0444317V1.78957C0.0321179 1.30054 0.0454695 0.811205 0.0844316 0.323574C0.101432 0.300574 2.91643 0.289574 6.32943 0.295574L12.5404 0.312575L12.5584 1.76057Z" fill="white"/>
</svg>
