<svg xmlns="http://www.w3.org/2000/svg" xmlns:xlink="http://www.w3.org/1999/xlink" version="1.1" x="0px" y="0px" viewBox="0 0 1024 1280" style="enable-background:new 0 0 1024 1024;" xml:space="preserve"><g><g><g><path d="M248.9,249.1c7.5-7.4,15.2-14.6,23.2-21.4c3.7-3.1,7.4-6.2,11.2-9.2c0.9-0.7,1.9-1.5,2.8-2.2     c-4.2,3.2-0.2,0.2,0.5-0.4c2.1-1.6,4.2-3.2,6.4-4.7c16.3-11.8,33.6-22.3,51.5-31.4c4.2-2.1,8.4-4.2,12.6-6.1     c2.1-1,4.2-1.9,6.4-2.9c0.9-0.4,1.7-0.8,2.6-1.1c0.9-0.4,1.7-0.7,2.6-1.1c-2.6,1.1-2.9,1.2-0.9,0.4c9-3.7,18.1-7.1,27.4-10.1     c18.4-6,37.2-10.6,56.3-13.9c2.3-0.4,4.5-0.7,6.8-1.1c1.4-0.2,2.7-0.4,4.1-0.6c1.7-0.2,2.4-1.2-1.2,0.2c4.3-1.6,10.5-1.2,15-1.7     c9.6-0.9,19.2-1.4,28.8-1.6s19.2,0,28.9,0.6c4.6,0.3,9.1,0.6,13.7,1c4.4,0.4,10.9,0,15,1.7c-4.5-1.8-1.8-0.2,0.1,0     c0.9,0.1,1.8,0.3,2.7,0.4c2.5,0.4,5,0.8,7.5,1.2c5,0.9,10,1.8,14.9,2.8c9.5,2,18.9,4.3,28.2,7c9.6,2.8,19,5.9,28.3,9.4     c4.2,1.6,9,3,13,5.1c-0.4-0.2-4.2-1.8-0.9-0.4c1.3,0.6,2.6,1.1,3.8,1.7c2.6,1.1,5.1,2.3,7.6,3.5c17.9,8.4,35.2,18.1,51.7,29.2     c4,2.7,7.9,5.4,11.8,8.2c1.9,1.4,3.9,2.8,5.8,4.3c0.2,0.1,4,3,1.4,1.1c-2.5-1.8,2.1,1.7,2.5,2c8,6.3,15.8,13,23.2,20     c15.1,14,29,29.1,41.7,45.2c0.6,0.8,3.9,4.4,0.4,0.5c0.6,0.7,1.2,1.6,1.7,2.3c1.4,1.9,2.9,3.8,4.3,5.8c3.1,4.3,6.1,8.6,9,12.9     c5.5,8.3,10.7,16.8,15.5,25.4c4.9,8.8,9.5,17.8,13.7,26.9c1,2.1,1.9,4.2,2.9,6.4c0.5,1.1,0.9,2.1,1.4,3.2     c1.9,4.3-1.2-3.1-0.1-0.3c1.9,4.7,3.8,9.5,5.6,14.3c6.8,18.4,12.2,37.3,16.1,56.5c0.9,4.5,1.8,9,2.5,13.6     c0.4,2.3,0.7,4.5,1.1,6.8c0.1,0.9,0.3,1.8,0.4,2.7c0.1,0.9,0.3,1.8,0.4,2.7c-0.4-3-0.5-3.5-0.2-1.2c1.2,9.6,2.1,19.1,2.6,28.8     c1,19.2,0.6,38.5-1.2,57.7c-0.4,4.6-1.1,9.1-1.5,13.7c0.5-6.2-0.2,1.4-0.4,2.9c-0.4,2.7-0.9,5.4-1.3,8.2c-1.6,9.5-3.6,19-6,28.3     c-2.3,9.4-5.1,18.7-8.1,27.9c-3,9-5.7,19.1-10.2,27.4c2.7-4.9-0.7,1.5-1.3,2.9c-1,2.3-2.1,4.7-3.2,7c-2.2,4.7-4.4,9.3-6.8,13.9     c-4.5,8.8-9.4,17.4-14.6,25.9c-5.4,8.7-11.1,17.2-17.1,25.5c-1.4,1.9-2.9,3.9-4.3,5.8c-0.6,0.8-2.2,3,0.5-0.6     c-0.9,1.2-1.8,2.3-2.7,3.4c-3.3,4.2-6.7,8.3-10.2,12.3c-13.4,15.6-28.1,30.1-43.8,43.5c-3.7,3.1-7.4,6.2-11.2,9.2     c-0.2,0.2-4,3-1.4,1.1c2.6-1.9-1.2,0.9-1.4,1.1c-2.3,1.7-4.6,3.4-7,5.1c-8.1,5.8-16.5,11.3-25,16.5c-8.5,5.1-17.1,10-25.9,14.4     c-4.2,2.1-8.4,4.2-12.6,6.1c-2.1,1-4.2,1.9-6.4,2.9c-1.3,0.6-2.6,1.1-3.8,1.7c-4.5,1.9,4.1-1.7-0.4,0.1     c-18,7.3-36.5,13.4-55.4,18.1c-9.6,2.4-19.3,4.4-29,6c-2.3,0.4-4.5,0.7-6.8,1.1c-1.1,0.2-2.3,0.3-3.4,0.5     c-4.6,0.7,3.6-0.4,0.5-0.1c-5,0.6-10,1.2-15,1.6c-19.4,1.7-38.9,2-58.4,0.9c-4.6-0.3-9.1-0.6-13.7-1.1c-2.3-0.2-4.6-0.5-6.8-0.7     c-0.9-0.1-1.8-0.2-2.7-0.3c-1.2-0.1-7.6-1.1-1.5-0.2c-9.5-1.5-19.1-3-28.5-5c-19-4-37.6-9.5-55.8-16.3c-4.3-1.6-8.6-3.7-13-5.1     c5.4,1.7-1.6-0.7-2.9-1.3c-2.6-1.1-5.1-2.3-7.6-3.5c-8.9-4.2-17.7-8.7-26.3-13.5c-8.7-4.9-17.1-10.1-25.4-15.6     c-4-2.7-7.9-5.4-11.8-8.2c-2.1-1.5-4.3-3.1-6.4-4.7c-0.9-0.7-3.7-2.8,0,0.1c-1.2-0.9-2.3-1.8-3.4-2.7     c-16.3-12.9-31.5-27.1-45.6-42.5c-7.1-7.7-13.8-15.7-20.3-23.9c-0.6-0.8-2.5-2.8,0.5,0.6c-0.9-1.1-1.8-2.3-2.6-3.5     c-1.4-1.9-2.9-3.9-4.2-5.8c-3.1-4.3-6-8.6-8.9-13c-10.9-16.5-20.5-33.9-28.8-51.8c-1-2.1-1.9-4.2-2.9-6.4     c-0.5-1.1-0.9-2.1-1.4-3.2c-1.2-2.8,1.9,4.6,0.1,0.3c-1.9-4.7-3.8-9.5-5.6-14.3c-3.3-9.1-6.3-18.4-9-27.7     c-2.6-9.3-4.9-18.7-6.9-28.2c-0.9-4.5-1.8-9-2.5-13.6c-0.4-2.3-0.7-4.5-1.1-6.8c-0.2-1.4-0.4-2.7-0.6-4.1c-0.7-4.8,0.6,4.7,0-0.1     c-2.3-19.1-3.4-38.3-3-57.6c0.2-9.9,0.8-19.7,1.7-29.5c0.2-2.3,0.5-4.6,0.7-6.8c0.1-1.1,0.3-2.3,0.4-3.4c0.1-0.4,0.5-5,0.2-1.4     c-0.3,3.5,0.1-1,0.2-1.4c0.2-1.4,0.4-2.7,0.6-4.1c0.4-2.5,0.8-5,1.2-7.5c3.4-19.3,8.2-38.3,14.4-56.9c1.5-4.4,3-8.8,4.6-13.1     c0.8-2.2,1.6-4.3,2.5-6.5c0.3-0.9,0.7-1.7,1-2.6c0.4-1.1,3.1-6.9,0.7-1.7c4.1-8.9,8-17.9,12.5-26.6c9.1-17.7,19.6-34.7,31.4-50.7     c1.4-1.9,2.9-3.9,4.3-5.8c3-4-2.7,3.4,0.4-0.5c0.6-0.8,1.2-1.5,1.8-2.3c3-3.8,6.1-7.5,9.2-11.2     C234.6,263.9,241.6,256.3,248.9,249.1c7.4-7.4,8-21,0-28.3c-8-7.3-20.4-7.9-28.3,0c-59.7,59.9-100.9,138-114.7,221.6     c-13.7,83.1-2.5,168.1,32.9,244.6c35.9,77.4,97.4,143.1,171.8,184.7c72.3,40.4,157.1,58.6,239.7,50.5     c85.1-8.3,165.3-42.2,230.2-97.8c64.5-55.2,111.2-131,131.4-213.6c19.5-80,15-166-14.2-243.1c-30.8-81.5-86.6-151.5-159.2-199.7     c-69.1-45.9-152.7-69.7-235.6-67.8c-83.2,1.9-165.9,29.1-233,78.5c-17.5,12.8-34,26.8-49.4,42.1c-7.4,7.4-7.9,21,0,28.3     C228.6,256.4,240.9,256.9,248.9,249.1z"/></g></g><g><g><path d="M664.5,444.6c-18.7,18.7-37.5,37.5-56.2,56.2c-29.9,29.9-59.8,59.8-89.7,89.7     c-6.9,6.9-13.8,13.8-20.7,20.7c9.4,0,18.9,0,28.3,0c-18.7-18.7-37.5-37.5-56.2-56.2c-29.9-29.9-59.8-59.8-89.7-89.7     c-6.9-6.9-13.8-13.8-20.7-20.7c-7.4-7.4-21-8-28.3,0s-7.9,20.4,0,28.3c18.7,18.7,37.5,37.5,56.2,56.2     c29.9,29.9,59.8,59.8,89.7,89.7c6.9,6.9,13.8,13.8,20.7,20.7c7.6,7.6,20.6,7.7,28.3,0c18.7-18.7,37.5-37.5,56.2-56.2     c29.9-29.9,59.8-59.8,89.7-89.7c6.9-6.9,13.8-13.8,20.7-20.7c7.4-7.4,8-21,0-28.3S672.4,436.7,664.5,444.6L664.5,444.6z"/></g></g></g><text x="0" y="1039" fill="#000000" font-size="5px" font-weight="bold" font-family="'Helvetica Neue', Helvetica, Arial-Unicode, Arial, Sans-serif">Created by shashank singh</text><text x="0" y="1044" fill="#000000" font-size="5px" font-weight="bold" font-family="'Helvetica Neue', Helvetica, Arial-Unicode, Arial, Sans-serif">from the Noun Project</text></svg>