<svg width="53" height="53" viewBox="0 0 53 53" fill="none" xmlns="http://www.w3.org/2000/svg">
<path d="M9.79931 9.76336C10.2754 9.29508 10.7642 8.83946 11.272 8.40914C11.5068 8.21297 11.7417 8.0168 11.9829 7.82696C12.04 7.78266 12.1035 7.73203 12.1606 7.68774C11.894 7.89024 12.1479 7.70039 12.1924 7.66242C12.3257 7.56117 12.459 7.45992 12.5986 7.365C13.6333 6.61828 14.7314 5.95383 15.8677 5.37797C16.1343 5.24508 16.4009 5.11219 16.6675 4.99196C16.8008 4.92867 16.9341 4.87172 17.0737 4.80844C17.1309 4.78313 17.1816 4.75782 17.2388 4.73883C17.2959 4.71352 17.3467 4.69453 17.4038 4.66922C17.2388 4.73883 17.2197 4.74516 17.3467 4.69453C17.918 4.46039 18.4956 4.24524 19.0859 4.05539C20.2539 3.67571 21.4473 3.38461 22.6597 3.17578C22.8057 3.15047 22.9453 3.13149 23.0913 3.10617C23.1802 3.09352 23.2627 3.08086 23.3516 3.06821C23.4595 3.05555 23.5039 2.99227 23.2754 3.08086C23.5483 2.97961 23.9419 3.00493 24.2275 2.97328C24.8369 2.91633 25.4463 2.88469 26.0557 2.87203C26.665 2.85938 27.2744 2.87203 27.8901 2.91C28.1821 2.92899 28.4678 2.94797 28.7598 2.97328C29.0391 2.9986 29.4517 2.97328 29.7119 3.08086C29.4263 2.96696 29.5977 3.06821 29.7183 3.08086C29.7754 3.08719 29.8325 3.09985 29.8896 3.10617C30.0483 3.13149 30.207 3.1568 30.3657 3.18211C30.6831 3.23907 31.0005 3.29602 31.3115 3.3593C31.9145 3.48586 32.5112 3.63141 33.1016 3.80227C33.7109 3.97946 34.3076 4.17563 34.8979 4.39711C35.1645 4.49836 35.4692 4.58696 35.7231 4.71985C35.6977 4.70719 35.4565 4.60594 35.666 4.69453C35.7485 4.7325 35.8311 4.76414 35.9072 4.80211C36.0723 4.87172 36.231 4.94766 36.3896 5.0236C37.5259 5.55516 38.624 6.16899 39.6714 6.87141C39.9253 7.04227 40.1728 7.21313 40.4204 7.39032C40.541 7.47891 40.668 7.5675 40.7886 7.66242C40.8013 7.66875 41.0425 7.85227 40.8774 7.73203C40.7187 7.61813 41.0107 7.83961 41.0361 7.8586C41.5439 8.25727 42.0391 8.68125 42.5088 9.12422C43.4673 10.0102 44.3496 10.9657 45.1558 11.9845C45.1938 12.0352 45.4033 12.263 45.1811 12.0162C45.2192 12.0605 45.2573 12.1174 45.2891 12.1617C45.3779 12.282 45.4731 12.4022 45.562 12.5288C45.7588 12.8009 45.9492 13.073 46.1333 13.3451C46.4824 13.8703 46.8125 14.4082 47.1172 14.9524C47.4282 15.5093 47.7202 16.0788 47.9868 16.6547C48.0503 16.7876 48.1074 16.9205 48.1709 17.0597C48.2026 17.1293 48.228 17.1926 48.2598 17.2622C48.3804 17.5343 48.1836 17.066 48.2534 17.2432C48.374 17.5406 48.4946 17.8444 48.6089 18.1481C49.0405 19.3125 49.3833 20.5085 49.6309 21.7235C49.688 22.0083 49.7451 22.2931 49.7895 22.5841C49.8149 22.7297 49.834 22.8689 49.8594 23.0145C49.8657 23.0714 49.8784 23.1284 49.8848 23.1853C49.8911 23.2423 49.9038 23.2992 49.9102 23.3562C49.8848 23.1663 49.8784 23.1347 49.8975 23.2802C49.9736 23.8877 50.0308 24.4889 50.0625 25.1027C50.126 26.3177 50.1006 27.5391 49.9863 28.7541C49.9609 29.0452 49.9165 29.3299 49.8911 29.621C49.9228 29.2287 49.8784 29.7096 49.8657 29.8045C49.8403 29.9754 49.8086 30.1463 49.7832 30.3234C49.6816 30.9246 49.5547 31.5258 49.4023 32.1143C49.2563 32.7091 49.0786 33.2977 48.8882 33.8798C48.6977 34.4494 48.5264 35.0885 48.2407 35.6137C48.4121 35.3037 48.1963 35.7087 48.1582 35.7973C48.0947 35.9428 48.0249 36.0947 47.9551 36.2402C47.8154 36.5377 47.6758 36.8288 47.5234 37.1198C47.2378 37.6767 46.9268 38.2209 46.5967 38.7588C46.2539 39.3094 45.8921 39.8473 45.5112 40.3725C45.4224 40.4927 45.3271 40.6193 45.2383 40.7395C45.2002 40.7902 45.0986 40.9294 45.27 40.7016C45.2129 40.7775 45.1558 40.8471 45.0986 40.9167C44.8892 41.1825 44.6733 41.442 44.4512 41.6951C43.6006 42.6823 42.6675 43.5998 41.6709 44.4478C41.436 44.644 41.2012 44.8402 40.96 45.03C40.9473 45.0427 40.7061 45.2198 40.8711 45.0996C41.0361 44.9794 40.7949 45.1566 40.7822 45.1692C40.6362 45.2768 40.4902 45.3844 40.3379 45.492C39.8237 45.859 39.2905 46.207 38.751 46.5361C38.2114 46.8588 37.6655 47.1689 37.1069 47.4473C36.8403 47.5802 36.5737 47.7131 36.3071 47.8334C36.1738 47.8966 36.0405 47.9536 35.9009 48.0169C35.8184 48.0548 35.7358 48.0865 35.6597 48.1245C35.374 48.2447 35.9199 48.0169 35.6343 48.1308C34.4917 48.5927 33.3174 48.9787 32.1177 49.2762C31.5083 49.428 30.8926 49.5546 30.2769 49.6559C30.1309 49.6812 29.9912 49.7002 29.8452 49.7255C29.7754 49.7381 29.6992 49.7445 29.6294 49.7571C29.3374 49.8014 29.8579 49.7318 29.6611 49.7508C29.3437 49.7887 29.0264 49.8267 28.709 49.852C27.4775 49.9596 26.2397 49.9786 25.0019 49.909C24.71 49.89 24.4243 49.871 24.1323 49.8394C23.9863 49.8267 23.8403 49.8077 23.7007 49.7951C23.6436 49.7887 23.5864 49.7824 23.5293 49.7761C23.4531 49.7698 23.0469 49.7065 23.4341 49.7634C22.8311 49.6685 22.2217 49.5736 21.625 49.447C20.4189 49.1939 19.2383 48.8459 18.083 48.4155C17.8101 48.3143 17.5371 48.1814 17.2578 48.0928C17.6006 48.2004 17.1562 48.0485 17.0737 48.0105C16.9087 47.9409 16.75 47.865 16.5913 47.7891C16.0264 47.5233 15.4678 47.2385 14.9219 46.9348C14.3696 46.6247 13.8364 46.2956 13.3096 45.9476C13.0557 45.7767 12.8081 45.6059 12.5605 45.4287C12.4272 45.3338 12.2876 45.2325 12.1543 45.1312C12.0972 45.087 11.9194 44.9541 12.1543 45.1376C12.0781 45.0806 12.0083 45.0237 11.9385 44.9667C10.9038 44.1504 9.93896 43.2518 9.04394 42.2773C8.59326 41.79 8.16796 41.2837 7.75537 40.7648C7.71728 40.7142 7.59668 40.5877 7.78711 40.8028C7.72998 40.7332 7.67285 40.6573 7.62207 40.5813C7.5332 40.4611 7.43798 40.3345 7.35546 40.2143C7.15869 39.9422 6.97461 39.6701 6.79052 39.3916C6.09863 38.3475 5.48925 37.2464 4.9624 36.1137C4.89892 35.9808 4.84179 35.8479 4.77832 35.7087C4.74658 35.6391 4.72119 35.5758 4.68945 35.5062C4.61328 35.329 4.81005 35.7973 4.6958 35.5252C4.57519 35.2277 4.45459 34.924 4.34033 34.6202C4.13086 34.0444 3.94043 33.4559 3.76904 32.8673C3.604 32.2788 3.458 31.684 3.33105 31.0828C3.27392 30.798 3.21679 30.5133 3.17236 30.2222C3.14697 30.0766 3.12793 29.9374 3.10254 29.7919C3.08984 29.7033 3.07714 29.621 3.06445 29.5324C3.02002 29.2287 3.10254 29.8298 3.06445 29.5261C2.91845 28.3174 2.84863 27.1024 2.87402 25.8811C2.88672 25.2546 2.9248 24.6345 2.98193 24.0143C2.99463 23.8688 3.01367 23.7232 3.02636 23.584C3.03271 23.5144 3.04541 23.4384 3.05175 23.3688C3.0581 23.3435 3.08349 23.0524 3.06445 23.2802C3.04541 23.5017 3.0708 23.217 3.07714 23.1916C3.08984 23.103 3.10254 23.0208 3.11523 22.9322C3.14062 22.774 3.16601 22.6158 3.1914 22.4576C3.40722 21.2363 3.71191 20.0339 4.10546 18.8569C4.20068 18.5784 4.29589 18.3 4.39746 18.0279C4.44824 17.8887 4.49902 17.7558 4.55615 17.6166C4.57519 17.5596 4.60058 17.509 4.61963 17.452C4.64502 17.3824 4.8164 17.0154 4.66406 17.3445C4.92431 16.7813 5.17187 16.2117 5.45752 15.6612C6.03515 14.5411 6.70166 13.4653 7.45068 12.4528C7.53955 12.3326 7.63476 12.206 7.72363 12.0858C7.91406 11.8327 7.55224 12.3009 7.74902 12.0541C7.78711 12.0035 7.82519 11.9592 7.86328 11.9086C8.05371 11.6681 8.25048 11.434 8.44726 11.1998C8.8916 10.6999 9.33593 10.219 9.79931 9.76336C10.269 9.29508 10.3071 8.43446 9.79931 7.9725C9.2915 7.51055 8.50439 7.47258 8.00293 7.9725C4.21338 11.763 1.59814 16.7053 0.722164 21.9956C-0.147465 27.2543 0.563473 32.6332 2.81054 37.4742C5.08935 42.3722 8.99316 46.5298 13.7158 49.1623C18.3052 51.7188 23.688 52.8705 28.9311 52.358C34.333 51.8327 39.4238 49.6875 43.5435 46.1691C47.6377 42.6759 50.602 37.8792 51.8843 32.6522C53.1221 27.5897 52.8364 22.1475 50.9829 17.2685C49.0278 12.1111 45.4858 7.68141 40.8774 4.63125C36.4912 1.72664 31.1846 0.22055 25.9224 0.340785C20.6411 0.461019 15.3916 2.18227 11.1323 5.30836C10.0215 6.11836 8.97412 7.0043 7.99658 7.9725C7.52685 8.44078 7.49511 9.30141 7.99658 9.76336C8.51074 10.2253 9.2915 10.257 9.79931 9.76336Z" fill="white"/>
<path d="M36.1802 22.1348C34.9932 23.3182 33.7998 24.5079 32.6128 25.6912C30.7148 27.5834 28.8169 29.4755 26.9189 31.3676C26.4809 31.8042 26.043 32.2409 25.605 32.6775C26.2016 32.6775 26.8047 32.6775 27.4014 32.6775C26.2143 31.4941 25.021 30.3045 23.834 29.1211C21.936 27.229 20.0381 25.3369 18.1401 23.4448C17.7021 23.0081 17.2641 22.5715 16.8262 22.1348C16.3564 21.6666 15.4932 21.6286 15.0298 22.1348C14.5664 22.6411 14.5283 23.4258 15.0298 23.9257C16.2168 25.1091 17.4101 26.2987 18.5972 27.4821C20.4951 29.3742 22.3931 31.2663 24.291 33.1584C24.729 33.5951 25.167 34.0317 25.605 34.4684C26.0874 34.9493 26.9126 34.9556 27.4014 34.4684C28.5884 33.285 29.7817 32.0953 30.9687 30.912C32.8667 29.0198 34.7646 27.1277 36.6626 25.2356C37.1006 24.799 37.5386 24.3623 37.9766 23.9257C38.4463 23.4574 38.4844 22.5968 37.9766 22.1348C37.4687 21.6729 36.6816 21.6349 36.1802 22.1348Z" fill="white"/>
</svg>
